<svg xmlns="http://www.w3.org/2000/svg" viewBox="0 0 400 280">
<rect width="400" height="280" fill="#f1f1ef"/>
<path d="M230.1 260.0L230.6 259.2L229.6 258.6L230.6 256.8L228.7 255.0L226.4 251.1L226.3 250.5L226.5 249.8L229.6 245.6L229.6 245.3L226.4 243.6L224.7 240.0L225.0 236.6L224.6 229.2L225.8 226.2L226.1 224.4L224.0 223.2L213.9 220.5L213.0 220.1L212.5 219.5L213.0 218.4L214.0 217.9L214.6 217.9L216.1 218.5L216.6 218.5L218.0 216.8L218.4 215.8L218.6 214.2L219.4 212.7L220.0 210.4L221.4 207.7L221.9 205.7L223.7 201.7L224.9 198.5L225.1 197.0L224.5 194.5L224.6 193.2L226.7 189.9L227.6 185.2L228.8 182.7L228.8 180.8L229.2 178.0L229.9 176.0L230.4 174.0L231.5 171.9L231.9 170.9L231.8 166.4L232.2 164.0L231.3 159.0L229.3 155.8L227.7 151.9L224.6 148.6L222.5 144.4L218.2 140.7L215.5 135.6L214.2 134.0L211.7 131.8L210.8 130.5L209.3 126.3L207.2 121.7L206.8 119.6L206.4 116.3L206.0 114.8L203.5 111.0L202.3 107.6L199.9 105.1L199.0 103.6L197.9 98.9L196.0 95.5L195.4 93.8L194.4 87.3L192.3 83.1L191.5 80.1L191.3 78.0L191.6 75.1L193.2 68.6L193.0 65.2L193.2 64.1L191.1 64.4L188.8 63.9L188.5 63.0L188.7 61.2L189.4 59.3L188.4 58.9L187.4 59.2L186.8 59.9L185.5 60.8L183.5 59.7L182.1 59.7L180.1 60.7L179.6 61.4L177.8 62.2L176.2 61.4L175.5 59.9L174.2 58.5L173.1 58.1L173.0 57.2L171.7 57.4L170.9 57.3L169.9 58.0L168.9 58.4L167.8 58.1L170.2 56.1L170.7 55.3L171.0 53.7L170.7 49.8L171.7 46.9L171.7 45.8L172.7 43.9L175.3 40.5L176.1 39.0L178.7 36.8L181.3 32.6L183.2 32.3L184.3 31.7L185.5 31.9L186.9 31.4L189.5 29.7L190.8 29.4L191.6 28.1L192.5 27.9L193.0 27.4L194.5 27.1L196.5 25.1L198.1 24.1L198.9 21.8L200.1 20.8L202.3 20.6L204.3 20.0L205.2 20.3L206.4 21.5L207.5 21.4" fill="none" stroke="#e0d9cd" stroke-width="7" stroke-linecap="round" stroke-linejoin="round"/>
<path d="M230.1 260.0L230.6 259.2L229.6 258.6L230.6 256.8L228.7 255.0L226.4 251.1L226.3 250.5L226.5 249.8L229.6 245.6L229.6 245.3L226.4 243.6L224.7 240.0L225.0 236.6L224.6 229.2L225.8 226.2L226.1 224.4L224.0 223.2L213.9 220.5L213.0 220.1L212.5 219.5L213.0 218.4L214.0 217.9L214.6 217.9L216.1 218.5L216.6 218.5L218.0 216.8L218.4 215.8L218.6 214.2L219.4 212.7L220.0 210.4L221.4 207.7L221.9 205.7L223.7 201.7L224.9 198.5L225.1 197.0L224.5 194.5L224.6 193.2L226.7 189.9L227.6 185.2L228.8 182.7L228.8 180.8L229.2 178.0L229.9 176.0L230.4 174.0L231.5 171.9L231.9 170.9L231.8 166.4L232.2 164.0L231.3 159.0L229.3 155.8L227.7 151.9L224.6 148.6L222.5 144.4L218.2 140.7L215.5 135.6L214.2 134.0L211.7 131.8L210.8 130.5L209.3 126.3L207.2 121.7L206.8 119.6L206.4 116.3L206.0 114.8L203.5 111.0L202.3 107.6L199.9 105.1L199.0 103.6L197.9 98.9L196.0 95.5L195.4 93.8L194.4 87.3L192.3 83.1L191.5 80.1L191.3 78.0L191.6 75.1L193.2 68.6L193.0 65.2L193.2 64.1L191.1 64.4L188.8 63.9L188.5 63.0L188.7 61.2L189.4 59.3L188.4 58.9L187.4 59.2L186.8 59.9L185.5 60.8L183.5 59.7L182.1 59.7L180.1 60.7L179.6 61.4L177.8 62.2L176.2 61.4L175.5 59.9L174.2 58.5L173.1 58.1L173.0 57.2L171.7 57.4L170.9 57.3L169.9 58.0L168.9 58.4L167.8 58.1L170.2 56.1L170.7 55.3L171.0 53.7L170.7 49.8L171.7 46.9L171.7 45.8L172.7 43.9L175.3 40.5L176.1 39.0L178.7 36.8L181.3 32.6L183.2 32.3L184.3 31.7L185.5 31.9L186.9 31.4L189.5 29.7L190.8 29.4L191.6 28.1L192.5 27.9L193.0 27.4L194.5 27.1L196.5 25.1L198.1 24.1L198.9 21.8L200.1 20.8L202.3 20.6L204.3 20.0L205.2 20.3L206.4 21.5L207.5 21.4" fill="none" stroke="#f97316" stroke-width="3.5" stroke-linecap="round" stroke-linejoin="round"/>
<circle cx="230.1" cy="260.0" r="6" fill="#16a34a" stroke="#fff" stroke-width="2"/>
<circle cx="207.5" cy="21.4" r="6" fill="#1a1a1a" stroke="#fff" stroke-width="2"/>
</svg>
