<svg xmlns="http://www.w3.org/2000/svg" viewBox="0 0 400 280">
<rect width="400" height="280" fill="#f1f1ef"/>
<path d="M312.3 260.0L312.7 259.3L311.8 258.8L312.7 257.2L311.0 255.7L309.1 252.4L308.9 251.9L309.1 251.3L311.8 247.6L311.8 247.4L309.1 245.9L307.6 242.8L307.8 239.9L307.5 233.6L308.5 231.0L308.8 229.5L307.0 228.4L298.3 226.1L297.6 225.8L297.2 225.3L297.5 224.3L298.4 223.9L299.0 223.9L300.2 224.4L300.7 224.4L301.8 223.0L302.2 222.1L302.4 220.7L303.0 219.4L303.6 217.5L304.7 215.2L305.2 213.4L306.8 210.0L307.8 207.3L308.0 206.0L307.5 203.8L307.5 202.7L309.3 199.8L310.1 195.8L311.1 193.7L311.1 192.1L311.4 189.7L312.1 188.0L312.4 186.2L313.7 183.7L313.7 179.8L314.0 177.7L313.5 175.5L313.3 173.6L313.0 172.8L311.5 170.6L310.2 167.3L307.5 164.5L305.9 161.0L305.0 160.1L302.0 157.7L299.7 153.3L298.6 152.0L296.5 150.0L295.7 148.9L294.4 145.4L292.6 141.4L292.2 139.6L291.9 136.7L291.6 135.5L289.4 132.2L288.4 129.3L286.4 127.1L285.6 125.8L284.6 121.9L283.0 118.9L282.5 117.4L281.6 111.9L279.8 108.3L279.1 105.7L279.0 103.9L279.2 101.5L280.6 95.8L280.4 92.9L280.6 92.0L278.8 92.2L276.8 91.8L276.6 91.0L276.7 89.5L277.4 87.8L276.5 87.5L275.7 87.8L275.2 88.3L273.9 89.1L272.3 88.2L271.2 88.2L269.4 89.1L269.0 89.6L267.4 90.4L266.1 89.6L265.5 88.4L264.3 87.1L263.4 86.8L263.3 86.1L262.2 86.3L261.4 86.2L260.6 86.8L259.7 87.1L258.1 86.7L255.8 87.1L254.6 86.5L253.7 87.4L250.2 88.5L249.4 89.0L248.7 89.2L248.1 89.2L247.8 88.9L247.8 88.1L248.4 87.0L248.3 86.4L247.7 86.1L247.0 86.5L246.5 87.3L246.0 87.4L245.5 88.0L245.3 87.9L245.2 87.4L244.1 87.2L240.8 88.4L239.7 89.1L239.0 89.1L237.4 88.3L235.2 86.2L233.6 85.6L232.0 83.7L231.2 83.1L230.1 82.7L229.1 83.1L228.4 83.0L228.0 82.3L227.2 81.9L226.5 80.9L225.4 80.7L224.1 81.5L223.3 81.5L222.9 81.8L222.2 81.6L221.1 82.3L220.1 82.1L219.9 82.3L220.3 83.4L220.2 83.9L219.4 85.8L218.7 86.8L218.2 87.8L216.1 88.5L215.6 89.2L213.9 90.1L213.0 89.9L212.1 90.7L211.5 90.9L209.8 89.2L209.2 87.0L209.5 86.3L211.3 83.7L211.8 82.4L211.7 82.0L211.2 82.0L210.2 83.1L209.1 83.1L207.9 84.0L207.4 84.2L207.0 84.1L205.8 82.6L202.9 80.4L200.6 80.0L195.0 81.9L194.3 81.8L192.8 80.8L191.4 80.8L189.6 81.2L189.9 79.7L189.9 78.7L190.3 78.1L190.2 78.7L190.3 78.7L190.3 78.1L190.7 77.2L188.0 75.9L187.5 75.2L186.8 75.0L186.3 74.2L184.2 73.6L183.1 72.5L182.0 72.3L180.7 72.3L179.6 71.6L177.0 70.8L175.5 71.7L174.3 71.1L172.1 69.4L171.6 69.3L167.9 69.5L166.3 70.1L165.0 69.7L163.7 68.6L162.9 65.3L161.8 64.2L161.1 63.8L158.7 63.3L157.9 63.7L157.5 63.3L153.8 57.1L153.1 54.9L152.4 53.7L151.0 53.7L150.3 54.5L148.6 55.6L147.7 55.5L146.5 55.1L145.0 53.8L143.7 53.4L142.5 51.5L141.2 50.5L140.0 49.2L139.8 48.2L139.5 47.8L137.8 46.9L136.2 46.5L134.3 45.6L131.5 42.2L129.2 41.5L128.0 40.7L126.6 40.8L124.5 39.0L123.0 39.1L120.6 37.3L119.3 37.0L119.7 35.3L119.1 35.6L117.7 35.7L114.4 35.3L112.7 35.7L111.8 36.3L109.7 38.2L107.5 39.3L105.7 41.1L102.7 42.7L102.0 42.7L101.6 42.1L100.8 41.9L99.8 40.1L100.6 37.9L100.8 36.5L100.1 35.1L98.4 33.8L96.6 33.6L92.7 28.4L90.7 27.1L88.6 26.4L87.8 25.7L87.0 24.6L86.0 22.5L86.0 20.0" fill="none" stroke="#e0d9cd" stroke-width="7" stroke-linecap="round" stroke-linejoin="round"/>
<path d="M312.3 260.0L312.7 259.3L311.8 258.8L312.7 257.2L311.0 255.7L309.1 252.4L308.9 251.9L309.1 251.3L311.8 247.6L311.8 247.4L309.1 245.9L307.6 242.8L307.8 239.9L307.5 233.6L308.5 231.0L308.8 229.5L307.0 228.4L298.3 226.1L297.6 225.8L297.2 225.3L297.5 224.3L298.4 223.9L299.0 223.9L300.2 224.4L300.7 224.4L301.8 223.0L302.2 222.1L302.4 220.7L303.0 219.4L303.6 217.5L304.7 215.2L305.2 213.4L306.8 210.0L307.8 207.3L308.0 206.0L307.5 203.8L307.5 202.7L309.3 199.8L310.1 195.8L311.1 193.7L311.1 192.1L311.4 189.7L312.1 188.0L312.4 186.2L313.7 183.7L313.7 179.8L314.0 177.7L313.5 175.5L313.3 173.6L313.0 172.8L311.5 170.6L310.2 167.3L307.5 164.5L305.9 161.0L305.0 160.1L302.0 157.7L299.7 153.3L298.6 152.0L296.5 150.0L295.7 148.9L294.4 145.4L292.6 141.4L292.2 139.6L291.9 136.7L291.6 135.5L289.4 132.2L288.4 129.3L286.4 127.1L285.6 125.8L284.6 121.9L283.0 118.9L282.5 117.4L281.6 111.9L279.8 108.3L279.1 105.7L279.0 103.9L279.2 101.5L280.6 95.8L280.4 92.9L280.6 92.0L278.8 92.2L276.8 91.8L276.6 91.0L276.7 89.5L277.4 87.8L276.5 87.5L275.7 87.8L275.2 88.3L273.9 89.1L272.3 88.2L271.2 88.2L269.4 89.1L269.0 89.6L267.4 90.4L266.1 89.6L265.5 88.4L264.3 87.1L263.4 86.8L263.3 86.1L262.2 86.3L261.4 86.2L260.6 86.8L259.7 87.1L258.1 86.7L255.8 87.1L254.6 86.5L253.7 87.4L250.2 88.5L249.4 89.0L248.7 89.2L248.1 89.2L247.8 88.9L247.8 88.1L248.4 87.0L248.3 86.4L247.7 86.1L247.0 86.5L246.5 87.3L246.0 87.4L245.5 88.0L245.3 87.9L245.2 87.4L244.1 87.2L240.8 88.4L239.7 89.1L239.0 89.1L237.4 88.3L235.2 86.2L233.6 85.6L232.0 83.7L231.2 83.1L230.1 82.7L229.1 83.1L228.4 83.0L228.0 82.3L227.2 81.9L226.5 80.9L225.4 80.7L224.1 81.5L223.3 81.5L222.9 81.8L222.2 81.6L221.1 82.3L220.1 82.1L219.9 82.3L220.3 83.4L220.2 83.9L219.4 85.8L218.7 86.8L218.2 87.8L216.1 88.5L215.6 89.2L213.9 90.1L213.0 89.9L212.1 90.7L211.5 90.9L209.8 89.2L209.2 87.0L209.5 86.3L211.3 83.7L211.8 82.4L211.7 82.0L211.2 82.0L210.2 83.1L209.1 83.1L207.9 84.0L207.4 84.2L207.0 84.1L205.8 82.6L202.9 80.4L200.6 80.0L195.0 81.9L194.3 81.8L192.8 80.8L191.4 80.8L189.6 81.2L189.9 79.7L189.9 78.7L190.3 78.1L190.2 78.7L190.3 78.7L190.3 78.1L190.7 77.2L188.0 75.9L187.5 75.2L186.8 75.0L186.3 74.2L184.2 73.6L183.1 72.5L182.0 72.3L180.7 72.3L179.6 71.6L177.0 70.8L175.5 71.7L174.3 71.1L172.1 69.4L171.6 69.3L167.9 69.5L166.3 70.1L165.0 69.7L163.7 68.6L162.9 65.3L161.8 64.2L161.1 63.8L158.7 63.3L157.9 63.7L157.5 63.3L153.8 57.1L153.1 54.9L152.4 53.7L151.0 53.7L150.3 54.5L148.6 55.6L147.7 55.5L146.5 55.1L145.0 53.8L143.7 53.4L142.5 51.5L141.2 50.5L140.0 49.2L139.8 48.2L139.5 47.8L137.8 46.9L136.2 46.5L134.3 45.6L131.5 42.2L129.2 41.5L128.0 40.7L126.6 40.8L124.5 39.0L123.0 39.1L120.6 37.3L119.3 37.0L119.7 35.3L119.1 35.6L117.7 35.7L114.4 35.3L112.7 35.7L111.8 36.3L109.7 38.2L107.5 39.3L105.7 41.1L102.7 42.7L102.0 42.7L101.6 42.1L100.8 41.9L99.8 40.1L100.6 37.9L100.8 36.5L100.1 35.1L98.4 33.8L96.6 33.6L92.7 28.4L90.7 27.1L88.6 26.4L87.8 25.7L87.0 24.6L86.0 22.5L86.0 20.0" fill="none" stroke="#f97316" stroke-width="3.5" stroke-linecap="round" stroke-linejoin="round"/>
<circle cx="312.3" cy="260.0" r="6" fill="#16a34a" stroke="#fff" stroke-width="2"/>
<circle cx="86.0" cy="20.0" r="6" fill="#1a1a1a" stroke="#fff" stroke-width="2"/>
</svg>
