<svg xmlns="http://www.w3.org/2000/svg" viewBox="0 0 400 280">
<rect width="400" height="280" fill="#f1f1ef"/>
<path d="M312.9 260.0L313.3 259.3L312.4 258.8L313.3 257.2L311.7 255.7L309.7 252.4L309.6 251.9L309.8 251.3L312.5 247.6L312.5 247.4L309.7 245.9L308.3 242.8L308.5 239.9L308.2 233.6L309.2 231.0L309.2 230.2L309.5 229.7L309.3 229.4L307.6 228.4L299.0 226.1L298.0 225.6L297.1 224.7L295.6 225.0L295.2 224.5L294.3 224.2L292.6 222.9L290.0 221.5L289.1 220.6L289.2 220.4L289.3 220.9L288.7 221.5L287.3 222.2L286.5 222.3L282.2 221.7L277.5 221.6L275.3 221.2L274.5 220.6L273.6 219.4L272.7 217.8L271.6 215.1L269.5 212.5L268.4 211.5L267.6 209.7L266.9 209.1L265.3 208.6L258.6 208.0L257.4 208.3L255.3 209.2L252.9 208.8L249.8 209.4L247.2 208.8L245.3 207.3L241.7 206.4L240.2 206.3L239.3 206.5L236.5 208.2L235.9 208.9L235.1 210.5L234.1 211.1L233.4 211.0L232.0 210.5L228.5 210.8L225.3 209.7L221.3 210.4L220.2 210.1L219.8 209.7L218.5 207.1L217.3 205.7L216.9 204.8L216.1 201.7L215.7 196.3L215.4 194.9L214.7 192.9L212.6 189.7L210.7 183.1L209.9 182.0L207.9 180.9L206.7 179.4L206.0 178.2L203.5 176.1L202.9 175.9L202.0 176.0L200.9 177.2L200.1 177.4L196.6 176.3L195.2 176.2L194.3 175.9L193.6 175.3L191.9 173.1L190.9 170.6L190.2 169.7L186.9 168.3L185.8 167.6L184.2 167.5L182.8 168.0L182.1 167.0L179.1 165.8L178.9 165.4L178.7 164.3L174.7 161.9L173.7 160.4L172.3 159.1L170.8 158.1L166.8 153.2L165.9 152.9L163.9 153.1L158.6 151.1L156.7 150.0L156.3 149.4L155.1 147.0L155.1 146.4L155.3 145.2L155.0 144.4L153.2 142.7L151.6 141.8L150.9 141.7L149.4 142.1L148.7 141.9L143.9 138.4L141.5 133.1L141.3 132.2L141.1 131.9L140.0 132.0L138.0 133.4L135.9 133.6L134.6 134.9L133.1 134.9L131.0 135.8L130.4 135.7L129.6 135.2L129.2 134.3L129.7 132.2L129.4 130.7L129.6 128.7L129.9 127.3L131.0 124.7L131.2 123.8L131.8 122.7L132.0 122.1L131.8 120.2L131.4 118.7L129.8 113.6L129.3 113.1L128.4 112.8L128.0 112.2L127.7 110.2L126.9 108.1L126.8 106.1L127.8 104.0L127.7 102.2L125.7 100.2L124.8 99.6L122.1 96.5L121.8 96.5L121.7 94.6L121.1 93.0L120.4 92.1L120.3 91.0L120.0 90.4L120.1 89.9L119.3 88.4L118.8 85.6L118.4 84.7L117.3 83.8L117.3 82.2L116.8 80.6L115.8 78.5L115.7 76.9L114.3 76.0L112.6 75.6L112.0 75.1L111.1 74.1L110.9 72.3L109.5 71.1L108.7 68.8L109.5 66.7L109.5 65.8L108.7 63.7L107.0 63.0L106.2 61.7L105.0 61.1L104.3 60.0L104.2 59.4L103.3 59.6L102.8 59.2L102.3 57.2L102.5 56.4L102.3 55.6L102.5 54.8L102.4 53.6L102.5 53.1L102.2 52.5L102.2 51.6L101.8 50.7L102.0 49.4L102.7 48.6L103.0 47.7L103.6 47.4L103.8 47.0L103.6 46.5L102.3 45.8L101.4 46.2L101.0 46.1L100.4 45.6L100.2 45.0L100.4 43.5L101.5 41.9L100.4 40.0L101.3 37.9L101.5 36.4L100.7 35.1L100.0 34.4L99.0 33.8L97.6 33.8L97.2 33.6L95.4 31.0L93.1 28.3L91.4 27.1L89.3 26.4L88.4 25.7L87.7 24.6L86.7 22.5L86.7 20.0" fill="none" stroke="#e0d9cd" stroke-width="7" stroke-linecap="round" stroke-linejoin="round"/>
<path d="M312.9 260.0L313.3 259.3L312.4 258.8L313.3 257.2L311.7 255.7L309.7 252.4L309.6 251.9L309.8 251.3L312.5 247.6L312.5 247.4L309.7 245.9L308.3 242.8L308.5 239.9L308.2 233.6L309.2 231.0L309.2 230.2L309.5 229.7L309.3 229.4L307.6 228.4L299.0 226.1L298.0 225.6L297.1 224.7L295.6 225.0L295.2 224.5L294.3 224.2L292.6 222.9L290.0 221.5L289.1 220.6L289.2 220.4L289.3 220.9L288.7 221.5L287.3 222.2L286.5 222.3L282.2 221.7L277.5 221.6L275.3 221.2L274.5 220.6L273.6 219.4L272.7 217.8L271.6 215.1L269.5 212.5L268.4 211.5L267.6 209.7L266.9 209.1L265.3 208.6L258.6 208.0L257.4 208.3L255.3 209.2L252.9 208.8L249.8 209.4L247.2 208.8L245.3 207.3L241.7 206.4L240.2 206.3L239.3 206.5L236.5 208.2L235.9 208.9L235.1 210.5L234.1 211.1L233.4 211.0L232.0 210.5L228.5 210.8L225.3 209.7L221.3 210.4L220.2 210.1L219.8 209.7L218.5 207.1L217.3 205.7L216.9 204.8L216.1 201.7L215.7 196.3L215.4 194.9L214.7 192.9L212.6 189.7L210.7 183.1L209.9 182.0L207.9 180.9L206.7 179.4L206.0 178.2L203.5 176.1L202.9 175.9L202.0 176.0L200.9 177.2L200.1 177.4L196.6 176.3L195.2 176.2L194.3 175.9L193.6 175.3L191.9 173.1L190.9 170.6L190.2 169.7L186.9 168.3L185.8 167.6L184.2 167.5L182.8 168.0L182.1 167.0L179.1 165.8L178.9 165.4L178.7 164.3L174.7 161.9L173.7 160.4L172.3 159.1L170.8 158.1L166.8 153.2L165.9 152.9L163.9 153.1L158.6 151.1L156.7 150.0L156.3 149.4L155.1 147.0L155.1 146.4L155.3 145.2L155.0 144.4L153.2 142.7L151.6 141.8L150.9 141.7L149.4 142.1L148.7 141.9L143.9 138.4L141.5 133.1L141.3 132.2L141.1 131.9L140.0 132.0L138.0 133.4L135.9 133.6L134.6 134.9L133.1 134.9L131.0 135.8L130.4 135.7L129.6 135.2L129.2 134.3L129.7 132.2L129.4 130.7L129.6 128.7L129.9 127.3L131.0 124.7L131.2 123.8L131.8 122.7L132.0 122.1L131.8 120.2L131.4 118.7L129.8 113.6L129.3 113.1L128.4 112.8L128.0 112.2L127.7 110.2L126.9 108.1L126.8 106.1L127.8 104.0L127.7 102.2L125.7 100.2L124.8 99.6L122.1 96.5L121.8 96.5L121.7 94.6L121.1 93.0L120.4 92.1L120.3 91.0L120.0 90.4L120.1 89.9L119.3 88.4L118.8 85.6L118.4 84.7L117.3 83.8L117.3 82.2L116.8 80.6L115.8 78.5L115.7 76.9L114.3 76.0L112.6 75.6L112.0 75.1L111.1 74.1L110.9 72.3L109.5 71.1L108.7 68.8L109.5 66.7L109.5 65.8L108.7 63.7L107.0 63.0L106.2 61.7L105.0 61.1L104.3 60.0L104.2 59.4L103.3 59.6L102.8 59.2L102.3 57.2L102.5 56.4L102.3 55.6L102.5 54.8L102.4 53.6L102.5 53.1L102.2 52.5L102.2 51.6L101.8 50.7L102.0 49.4L102.7 48.6L103.0 47.7L103.6 47.4L103.8 47.0L103.6 46.5L102.3 45.8L101.4 46.2L101.0 46.1L100.4 45.6L100.2 45.0L100.4 43.5L101.5 41.9L100.4 40.0L101.3 37.9L101.5 36.4L100.7 35.1L100.0 34.4L99.0 33.8L97.6 33.8L97.2 33.6L95.4 31.0L93.1 28.3L91.4 27.1L89.3 26.4L88.4 25.7L87.7 24.6L86.7 22.5L86.7 20.0" fill="none" stroke="#f97316" stroke-width="3.5" stroke-linecap="round" stroke-linejoin="round"/>
<circle cx="312.9" cy="260.0" r="6" fill="#16a34a" stroke="#fff" stroke-width="2"/>
<circle cx="86.7" cy="20.0" r="6" fill="#1a1a1a" stroke="#fff" stroke-width="2"/>
</svg>
