<svg xmlns="http://www.w3.org/2000/svg" viewBox="0 0 400 280">
<rect width="400" height="280" fill="#f1f1ef"/>
<path d="M228.2 260.0L228.7 259.2L227.7 258.6L228.7 256.8L226.7 255.0L224.5 251.0L224.3 250.4L224.5 249.7L227.7 245.4L227.7 245.1L224.5 243.4L222.7 239.8L223.0 236.3L222.6 228.9L223.8 225.8L224.1 224.1L222.0 222.8L211.8 220.1L210.9 219.7L210.4 219.1L210.9 218.0L211.9 217.5L212.6 217.5L214.0 218.1L214.6 218.0L215.9 216.4L216.3 215.3L216.6 213.7L217.4 212.2L218.0 209.9L219.3 207.2L219.9 205.1L221.8 201.1L222.9 197.9L223.2 196.4L222.6 193.8L222.6 192.5L224.8 189.1L225.7 184.4L226.9 181.9L226.9 180.0L227.3 177.1L228.0 175.2L228.4 173.1L229.6 171.0L230.0 170.0L229.9 165.5L230.3 163.0L229.7 160.4L229.5 158.1L229.1 157.2L227.4 154.7L225.7 150.8L222.6 147.5L220.7 143.4L219.7 142.3L216.1 139.5L213.4 134.3L212.1 132.7L209.6 130.4L208.7 129.1L207.2 125.0L205.1 120.3L204.6 118.2L204.3 114.8L203.9 113.3L201.3 109.5L200.0 106.1L197.7 103.5L196.8 101.9L195.6 97.3L193.7 93.8L193.1 92.1L192.1 85.5L190.0 81.3L189.2 78.3L189.0 76.1L189.3 73.2L190.9 66.6L190.7 63.1L190.9 62.1L188.8 62.4L186.1 61.8L185.3 60.5L183.6 59.7L182.3 58.2L180.7 57.6L179.3 57.8L177.7 58.6L177.2 59.3L175.5 60.2L173.9 59.5L173.4 58.6L171.6 60.6L170.5 61.3L169.7 61.0L171.6 59.2L172.8 56.7L174.6 55.7L175.7 54.5L176.6 54.3L178.9 54.4L180.1 53.9L181.6 53.8L182.8 53.2L183.7 52.0L184.2 49.9L185.2 49.1L186.4 49.1L189.1 50.0L191.3 51.2L191.9 52.3L191.9 53.6L191.3 54.6L190.2 55.9L190.0 55.8L190.9 55.6L191.4 55.1L191.2 54.9L191.9 54.0L192.2 53.1L191.9 51.6L191.2 50.8L187.7 48.7L187.2 47.9L187.0 47.0L187.3 45.5L188.1 44.0L189.0 42.9L190.9 41.6L191.5 40.4L191.4 38.3L191.6 37.0L193.0 33.2L193.2 32.2L193.0 30.9L191.6 28.4L191.6 26.2L192.3 24.8L193.5 23.8L197.6 26.1L199.3 26.2L198.5 26.0L198.0 24.7L198.0 23.8L197.2 22.0L198.4 20.0L200.4 20.4L200.8 20.7L200.8 21.1L200.1 21.9L199.4 22.3" fill="none" stroke="#e0d9cd" stroke-width="7" stroke-linecap="round" stroke-linejoin="round"/>
<path d="M228.2 260.0L228.7 259.2L227.7 258.6L228.7 256.8L226.7 255.0L224.5 251.0L224.3 250.4L224.5 249.7L227.7 245.4L227.7 245.1L224.5 243.4L222.7 239.8L223.0 236.3L222.6 228.9L223.8 225.8L224.1 224.1L222.0 222.8L211.8 220.1L210.9 219.7L210.4 219.1L210.9 218.0L211.9 217.5L212.6 217.5L214.0 218.1L214.6 218.0L215.9 216.4L216.3 215.3L216.6 213.7L217.4 212.2L218.0 209.9L219.3 207.2L219.9 205.1L221.8 201.1L222.9 197.9L223.2 196.4L222.6 193.8L222.6 192.5L224.8 189.1L225.7 184.4L226.9 181.9L226.9 180.0L227.3 177.1L228.0 175.2L228.4 173.1L229.6 171.0L230.0 170.0L229.9 165.5L230.3 163.0L229.7 160.4L229.5 158.1L229.1 157.2L227.4 154.7L225.7 150.8L222.6 147.5L220.7 143.4L219.7 142.3L216.1 139.5L213.4 134.3L212.1 132.7L209.6 130.4L208.7 129.1L207.2 125.0L205.1 120.3L204.6 118.2L204.3 114.8L203.9 113.3L201.3 109.5L200.0 106.1L197.7 103.5L196.8 101.9L195.6 97.3L193.7 93.8L193.1 92.1L192.1 85.5L190.0 81.3L189.2 78.3L189.0 76.1L189.3 73.2L190.9 66.6L190.7 63.1L190.9 62.1L188.8 62.4L186.1 61.8L185.3 60.5L183.6 59.7L182.3 58.2L180.7 57.6L179.3 57.8L177.7 58.6L177.2 59.3L175.5 60.2L173.9 59.5L173.4 58.6L171.6 60.6L170.5 61.3L169.7 61.0L171.6 59.2L172.8 56.7L174.6 55.7L175.7 54.5L176.6 54.3L178.9 54.4L180.1 53.9L181.6 53.8L182.8 53.2L183.7 52.0L184.2 49.9L185.2 49.1L186.4 49.1L189.1 50.0L191.3 51.2L191.9 52.3L191.9 53.6L191.3 54.6L190.2 55.9L190.0 55.8L190.9 55.6L191.4 55.1L191.2 54.9L191.9 54.0L192.2 53.1L191.9 51.6L191.2 50.8L187.7 48.7L187.2 47.9L187.0 47.0L187.3 45.5L188.1 44.0L189.0 42.9L190.9 41.6L191.5 40.4L191.4 38.3L191.6 37.0L193.0 33.2L193.2 32.2L193.0 30.9L191.6 28.4L191.6 26.2L192.3 24.8L193.5 23.8L197.6 26.1L199.3 26.2L198.5 26.0L198.0 24.7L198.0 23.8L197.2 22.0L198.4 20.0L200.4 20.4L200.8 20.7L200.8 21.1L200.1 21.9L199.4 22.3" fill="none" stroke="#f97316" stroke-width="3.5" stroke-linecap="round" stroke-linejoin="round"/>
<circle cx="228.2" cy="260.0" r="6" fill="#16a34a" stroke="#fff" stroke-width="2"/>
<circle cx="199.4" cy="22.3" r="6" fill="#1a1a1a" stroke="#fff" stroke-width="2"/>
</svg>
