<svg xmlns="http://www.w3.org/2000/svg" viewBox="0 0 400 280">
<rect width="400" height="280" fill="#f1f1ef"/>
<path d="M302.1 260.0L302.5 259.4L301.7 258.9L302.5 257.5L301.0 256.1L299.2 253.1L299.1 252.6L299.3 252.1L301.7 248.7L301.7 248.5L299.2 247.2L297.9 244.4L298.1 241.7L297.8 236.0L298.7 233.6L299.0 232.2L297.3 231.3L289.5 229.1L288.8 228.8L288.4 228.4L288.7 227.5L289.6 227.1L290.1 227.1L291.2 227.6L291.6 227.6L292.6 226.3L293.0 225.5L293.2 224.2L293.7 223.0L294.3 221.3L295.3 219.2L295.7 217.6L297.1 214.5L298.0 212.0L298.2 210.8L297.8 208.9L297.8 207.8L299.5 205.2L300.2 201.6L301.1 199.7L301.1 198.2L301.4 196.0L302.0 194.5L302.3 192.8L303.5 190.6L303.5 187.0L303.7 185.1L303.3 183.1L303.1 181.4L302.8 180.6L301.5 178.7L300.2 175.6L297.8 173.0L296.3 169.9L295.6 169.1L292.8 166.9L290.7 162.9L289.7 161.7L287.8 159.9L286.9 158.6L285.9 155.7L284.3 152.1L283.9 150.4L283.7 147.8L283.3 146.7L281.4 143.7L280.4 141.0L278.7 139.2L278.0 138.2L277.6 137.2L277.0 134.3L275.3 131.0L274.9 129.4L274.3 125.3L272.4 121.4L271.9 118.8L271.9 117.3L272.2 115.2L273.2 111.2L273.4 110.1L273.2 107.9L272.4 104.5L272.4 103.6L272.8 102.4L274.1 100.7L274.3 99.8L274.2 99.0L273.7 98.4L270.8 96.7L270.4 96.0L270.3 95.3L270.6 94.2L271.1 93.1L271.9 92.3L273.3 91.2L273.8 90.3L273.7 88.7L273.8 87.7L275.0 84.7L275.1 84.0L274.9 83.0L273.9 81.1L273.8 80.2L273.9 79.2L274.4 78.2L275.8 76.7L277.2 75.8L277.8 74.0L278.5 73.3L279.2 73.1L280.4 73.1L282.0 72.6L282.7 72.9L283.7 73.8L283.6 73.1L284.4 72.0L284.7 70.1L285.3 68.7L287.2 67.2L287.5 66.6L288.2 62.7L288.2 61.3L288.5 60.0L288.0 56.5L287.5 55.7L286.1 55.0L284.4 53.5L283.7 52.5L282.7 51.7L282.4 50.8L282.6 50.4L283.8 50.0L284.8 48.4L285.9 47.4L286.3 46.3L287.8 45.2L288.8 44.1L288.8 43.6L288.4 42.4L288.6 41.9L288.5 41.5L287.8 40.6L287.6 40.3L287.5 39.8L286.6 38.6L286.1 38.4L286.6 38.6L287.5 39.8L287.6 40.3L288.5 41.5L288.6 41.9L288.4 42.4L288.8 43.6L288.8 44.1L287.8 45.2L286.3 46.3L285.9 47.4L284.8 48.4L283.8 50.0L282.5 50.4L282.1 51.4L283.6 52.4L284.3 53.4L285.7 54.8L285.8 55.0L285.6 54.9L286.1 54.1L286.5 52.8L287.5 52.2L288.0 52.3L288.3 51.9L288.3 51.4L288.2 51.2L288.3 50.6L287.8 50.3L287.6 49.8L287.8 50.3L288.3 50.6L288.2 51.2L288.3 51.4L288.3 51.9L288.0 52.3L287.5 52.2L286.6 52.7L285.9 54.2L285.4 54.3L284.5 53.6L283.7 52.5L282.7 51.7L282.3 51.1L278.3 54.0L277.3 55.2L274.6 56.6L272.4 59.4L270.5 61.4L270.0 62.4L269.5 64.4L269.1 64.9L265.0 66.2L264.3 66.6L263.9 67.2L263.2 69.1L262.0 70.6L260.7 71.5L259.7 73.3L256.4 73.9L254.6 75.5L252.4 76.5L251.1 77.9L250.1 78.2L249.0 77.8L245.3 74.0L243.5 73.1L239.6 70.1L235.3 66.2L233.8 65.3L230.6 64.5L227.2 65.1L226.0 65.1L217.6 61.9L216.4 62.1L213.2 63.6L212.0 63.6L210.9 63.2L210.2 62.7L209.7 61.9L207.9 56.4L206.8 54.7L204.6 52.8L204.3 52.6L204.0 52.9L203.7 52.4L201.3 50.6L199.8 49.9L200.1 49.4L199.9 49.2L198.9 49.0L198.7 49.5L198.2 49.4L196.7 48.4L196.1 47.6L195.7 47.4L188.1 47.8L185.7 47.5L180.1 44.7L178.2 44.4L176.6 43.6L175.5 42.7L174.2 41.1L173.8 40.2L173.5 38.9L173.6 38.3L175.1 36.3L175.2 34.1L175.9 33.3L174.6 32.2L173.4 31.6L172.2 30.1L171.8 28.8L170.9 27.4L169.4 26.1L169.1 25.5L168.0 25.0L167.6 24.3L166.2 23.0L165.4 22.6L164.6 22.5L164.0 21.9L163.7 21.3L162.7 21.6L162.0 21.5L161.2 21.8L160.7 22.7L160.3 22.9L159.0 22.8L158.4 22.5L157.9 22.6L155.0 25.4L153.4 24.6L151.1 24.5L148.5 23.2L148.4 22.8L146.7 21.7L146.3 22.2L144.0 21.3L143.6 20.9L142.9 21.0L142.3 21.6L141.5 21.1L141.1 21.0L138.6 22.2L137.1 22.4L136.0 23.5L134.8 25.8L134.5 26.0L134.0 26.1L132.0 25.5L132.0 24.6L132.9 22.8L133.3 21.6L134.5 20.0L134.0 20.8L133.4 21.5L132.9 22.8L132.0 24.5L131.9 26.2L130.4 28.3L128.5 29.3L126.7 32.3L125.8 34.6L123.0 39.0L122.6 41.1L121.6 43.4L120.8 44.0L116.3 48.3L113.4 51.9L111.8 52.8L110.8 52.9L109.0 55.1L107.5 54.1L105.9 53.9L102.4 49.2L100.6 48.0L98.7 47.4L97.9 46.7L97.2 45.7L96.3 43.8L96.3 41.5" fill="none" stroke="#e0d9cd" stroke-width="7" stroke-linecap="round" stroke-linejoin="round"/>
<path d="M302.1 260.0L302.5 259.4L301.7 258.9L302.5 257.5L301.0 256.1L299.2 253.1L299.1 252.6L299.3 252.1L301.7 248.7L301.7 248.5L299.2 247.2L297.9 244.4L298.1 241.7L297.8 236.0L298.7 233.6L299.0 232.2L297.3 231.3L289.5 229.1L288.8 228.8L288.4 228.4L288.7 227.5L289.6 227.1L290.1 227.1L291.2 227.6L291.6 227.6L292.6 226.3L293.0 225.5L293.2 224.2L293.7 223.0L294.3 221.3L295.3 219.2L295.7 217.6L297.1 214.5L298.0 212.0L298.2 210.8L297.8 208.9L297.8 207.8L299.5 205.2L300.2 201.6L301.1 199.7L301.1 198.2L301.4 196.0L302.0 194.5L302.3 192.8L303.5 190.6L303.5 187.0L303.7 185.1L303.3 183.1L303.1 181.4L302.8 180.6L301.5 178.7L300.2 175.6L297.8 173.0L296.3 169.9L295.6 169.1L292.8 166.9L290.7 162.9L289.7 161.7L287.8 159.9L286.9 158.6L285.9 155.7L284.3 152.1L283.9 150.4L283.7 147.8L283.3 146.7L281.4 143.7L280.4 141.0L278.7 139.2L278.0 138.2L277.6 137.2L277.0 134.3L275.3 131.0L274.9 129.4L274.3 125.3L272.4 121.4L271.9 118.8L271.9 117.3L272.2 115.2L273.2 111.2L273.4 110.1L273.2 107.9L272.4 104.5L272.4 103.6L272.8 102.4L274.1 100.7L274.3 99.8L274.2 99.0L273.7 98.4L270.8 96.7L270.4 96.0L270.3 95.3L270.6 94.2L271.1 93.1L271.9 92.3L273.3 91.2L273.8 90.3L273.7 88.7L273.8 87.7L275.0 84.7L275.1 84.0L274.9 83.0L273.9 81.1L273.8 80.2L273.9 79.2L274.4 78.2L275.8 76.7L277.2 75.8L277.8 74.0L278.5 73.3L279.2 73.1L280.4 73.1L282.0 72.6L282.7 72.9L283.7 73.8L283.6 73.1L284.4 72.0L284.7 70.1L285.3 68.7L287.2 67.2L287.5 66.6L288.2 62.7L288.2 61.3L288.5 60.0L288.0 56.5L287.5 55.7L286.1 55.0L284.4 53.5L283.7 52.5L282.7 51.7L282.4 50.8L282.6 50.4L283.8 50.0L284.8 48.4L285.9 47.4L286.3 46.3L287.8 45.2L288.8 44.1L288.8 43.6L288.4 42.4L288.6 41.9L288.5 41.5L287.8 40.6L287.6 40.3L287.5 39.8L286.6 38.6L286.1 38.4L286.6 38.6L287.5 39.8L287.6 40.3L288.5 41.5L288.6 41.9L288.4 42.4L288.8 43.6L288.8 44.1L287.8 45.2L286.3 46.3L285.9 47.4L284.8 48.4L283.8 50.0L282.5 50.4L282.1 51.4L283.6 52.4L284.3 53.4L285.7 54.8L285.8 55.0L285.6 54.9L286.1 54.1L286.5 52.8L287.5 52.2L288.0 52.3L288.3 51.9L288.3 51.4L288.2 51.2L288.3 50.6L287.8 50.3L287.6 49.8L287.8 50.3L288.3 50.6L288.2 51.2L288.3 51.4L288.3 51.9L288.0 52.3L287.5 52.2L286.6 52.7L285.9 54.2L285.4 54.3L284.5 53.6L283.7 52.5L282.7 51.7L282.3 51.1L278.3 54.0L277.3 55.2L274.6 56.6L272.4 59.4L270.5 61.4L270.0 62.4L269.5 64.4L269.1 64.9L265.0 66.2L264.3 66.6L263.9 67.2L263.2 69.1L262.0 70.6L260.7 71.5L259.7 73.3L256.4 73.9L254.6 75.5L252.4 76.5L251.1 77.9L250.1 78.2L249.0 77.8L245.3 74.0L243.5 73.1L239.6 70.1L235.3 66.2L233.8 65.3L230.6 64.5L227.2 65.1L226.0 65.1L217.6 61.9L216.4 62.1L213.2 63.6L212.0 63.6L210.9 63.2L210.2 62.7L209.7 61.9L207.9 56.4L206.8 54.7L204.6 52.8L204.3 52.6L204.0 52.9L203.7 52.4L201.3 50.6L199.8 49.9L200.1 49.4L199.9 49.2L198.9 49.0L198.7 49.5L198.2 49.4L196.7 48.4L196.1 47.6L195.7 47.4L188.1 47.8L185.7 47.5L180.1 44.7L178.2 44.4L176.6 43.6L175.5 42.7L174.2 41.1L173.8 40.2L173.5 38.9L173.6 38.3L175.1 36.3L175.2 34.1L175.9 33.3L174.6 32.2L173.4 31.6L172.2 30.1L171.8 28.8L170.9 27.4L169.4 26.1L169.1 25.5L168.0 25.0L167.6 24.3L166.2 23.0L165.4 22.6L164.6 22.5L164.0 21.9L163.7 21.3L162.7 21.6L162.0 21.5L161.2 21.8L160.7 22.7L160.3 22.9L159.0 22.8L158.4 22.5L157.9 22.6L155.0 25.4L153.4 24.6L151.1 24.5L148.5 23.2L148.4 22.8L146.7 21.7L146.3 22.2L144.0 21.3L143.6 20.9L142.9 21.0L142.3 21.6L141.5 21.1L141.1 21.0L138.6 22.2L137.1 22.4L136.0 23.5L134.8 25.8L134.5 26.0L134.0 26.1L132.0 25.5L132.0 24.6L132.9 22.8L133.3 21.6L134.5 20.0L134.0 20.8L133.4 21.5L132.9 22.8L132.0 24.5L131.9 26.2L130.4 28.3L128.5 29.3L126.7 32.3L125.8 34.6L123.0 39.0L122.6 41.1L121.6 43.4L120.8 44.0L116.3 48.3L113.4 51.9L111.8 52.8L110.8 52.9L109.0 55.1L107.5 54.1L105.9 53.9L102.4 49.2L100.6 48.0L98.7 47.4L97.9 46.7L97.2 45.7L96.3 43.8L96.3 41.5" fill="none" stroke="#f97316" stroke-width="3.5" stroke-linecap="round" stroke-linejoin="round"/>
<circle cx="302.1" cy="260.0" r="6" fill="#16a34a" stroke="#fff" stroke-width="2"/>
<circle cx="96.3" cy="41.5" r="6" fill="#1a1a1a" stroke="#fff" stroke-width="2"/>
</svg>
