<svg xmlns="http://www.w3.org/2000/svg" viewBox="0 0 400 280">
<rect width="400" height="280" fill="#f1f1ef"/>
<path d="M216.4 260.0L216.8 259.3L215.9 258.8L216.8 257.3L215.2 255.8L213.2 252.5L213.1 252.0L213.3 251.4L215.9 247.8L216.0 247.6L213.2 246.1L211.8 243.1L212.0 240.2L211.7 234.0L212.7 231.4L213.0 229.9L211.2 228.9L202.7 226.6L201.9 226.3L201.5 225.8L201.9 224.9L202.8 224.4L203.3 224.4L204.5 224.9L205.0 224.9L206.1 223.5L206.4 222.6L206.7 221.3L207.3 220.0L207.9 218.1L209.0 215.8L209.4 214.1L211.0 210.7L212.0 208.0L212.1 206.8L211.6 204.6L211.7 203.5L213.5 200.7L214.3 196.8L215.3 194.7L215.2 193.1L215.6 190.7L216.2 189.0L216.6 187.3L217.8 184.8L217.8 180.9L218.1 178.8L217.6 176.7L217.5 174.9L217.1 174.0L215.7 171.9L214.3 168.6L211.7 165.8L210.1 162.4L209.3 161.5L206.3 159.2L204.0 154.8L202.9 153.5L200.8 151.6L199.8 150.2L198.8 147.0L197.0 143.1L196.6 141.3L196.4 138.5L196.0 137.3L193.9 134.1L192.8 131.1L191.0 129.2L190.3 128.1L189.9 127.0L189.1 123.8L187.3 120.3L186.8 118.6L186.3 114.2L184.2 110.0L183.6 107.2L183.6 105.5L183.9 103.3L185.1 98.9L185.2 97.6L185.0 95.3L184.2 91.6L184.2 90.7L184.6 89.3L186.1 87.5L186.3 86.5L186.1 85.7L185.6 85.0L182.4 83.1L182.0 82.5L181.9 81.7L182.2 80.5L182.8 79.2L183.6 78.4L185.2 77.3L185.7 76.3L185.6 74.5L185.7 73.4L187.0 70.2L187.1 69.4L186.9 68.3L185.8 66.3L185.7 65.3L185.8 64.2L186.3 63.2L187.8 61.6L189.3 60.6L190.0 58.6L190.8 57.9L191.6 57.6L192.9 57.6L194.5 57.1L195.3 57.4L196.2 58.3L196.5 58.3L196.3 57.6L197.2 56.4L197.5 54.4L198.2 52.9L200.4 50.9L201.1 47.2L201.2 44.9L201.6 43.4L201.3 40.9L201.0 39.5L200.5 38.8L199.0 38.0L197.2 36.4L196.4 35.3L195.3 34.4L195.0 33.6L195.2 33.0L196.5 32.6L197.7 30.9L198.8 29.8L199.2 28.6L200.9 27.4L201.9 26.2L201.9 25.6L201.5 24.4L201.7 23.8L201.7 23.4L200.6 22.1L200.5 21.5L199.5 20.3L199.0 20.0L199.5 20.3L200.5 21.5L200.6 22.1L201.7 23.4L201.7 23.8L201.5 24.4L201.9 25.6L201.9 26.2L200.9 27.4L199.2 28.6L198.8 29.8L197.7 30.9L196.5 32.6L195.1 33.1L194.7 34.2L196.3 35.2L197.1 36.4L198.7 37.9L198.6 38.1L198.4 37.9L199.0 37.1L199.5 35.6L200.5 35.0L201.1 35.1L201.4 34.7L201.5 34.1L201.3 33.9L201.4 33.2L200.9 33.0L200.7 32.4" fill="none" stroke="#e0d9cd" stroke-width="7" stroke-linecap="round" stroke-linejoin="round"/>
<path d="M216.4 260.0L216.8 259.3L215.9 258.8L216.8 257.3L215.2 255.8L213.2 252.5L213.1 252.0L213.3 251.4L215.9 247.8L216.0 247.6L213.2 246.1L211.8 243.1L212.0 240.2L211.7 234.0L212.7 231.4L213.0 229.9L211.2 228.9L202.7 226.6L201.9 226.3L201.5 225.8L201.9 224.9L202.8 224.4L203.3 224.4L204.5 224.9L205.0 224.9L206.1 223.5L206.4 222.6L206.7 221.3L207.3 220.0L207.9 218.1L209.0 215.8L209.4 214.1L211.0 210.7L212.0 208.0L212.1 206.8L211.6 204.6L211.7 203.5L213.5 200.7L214.3 196.8L215.3 194.7L215.2 193.1L215.6 190.7L216.2 189.0L216.6 187.3L217.8 184.8L217.8 180.9L218.1 178.8L217.6 176.7L217.5 174.9L217.1 174.0L215.7 171.9L214.3 168.6L211.7 165.8L210.1 162.4L209.3 161.5L206.3 159.2L204.0 154.8L202.9 153.5L200.8 151.6L199.8 150.2L198.8 147.0L197.0 143.1L196.6 141.3L196.4 138.5L196.0 137.3L193.9 134.1L192.8 131.1L191.0 129.2L190.3 128.1L189.9 127.0L189.1 123.8L187.3 120.3L186.8 118.6L186.3 114.2L184.2 110.0L183.6 107.2L183.6 105.5L183.9 103.3L185.1 98.9L185.2 97.6L185.0 95.3L184.2 91.6L184.2 90.7L184.6 89.3L186.1 87.5L186.3 86.5L186.1 85.7L185.6 85.0L182.4 83.1L182.0 82.5L181.9 81.7L182.2 80.5L182.8 79.2L183.6 78.4L185.2 77.3L185.7 76.3L185.6 74.5L185.7 73.4L187.0 70.2L187.1 69.4L186.9 68.3L185.8 66.3L185.7 65.3L185.8 64.2L186.3 63.2L187.8 61.6L189.3 60.6L190.0 58.6L190.8 57.9L191.6 57.6L192.9 57.6L194.5 57.1L195.3 57.4L196.2 58.3L196.5 58.3L196.3 57.6L197.2 56.4L197.5 54.4L198.2 52.9L200.4 50.9L201.1 47.2L201.2 44.9L201.6 43.4L201.3 40.9L201.0 39.5L200.5 38.8L199.0 38.0L197.2 36.4L196.4 35.3L195.3 34.4L195.0 33.6L195.2 33.0L196.5 32.6L197.7 30.9L198.8 29.8L199.2 28.6L200.9 27.4L201.9 26.2L201.9 25.6L201.5 24.4L201.7 23.8L201.7 23.4L200.6 22.1L200.5 21.5L199.5 20.3L199.0 20.0L199.5 20.3L200.5 21.5L200.6 22.1L201.7 23.4L201.7 23.8L201.5 24.4L201.9 25.6L201.9 26.2L200.9 27.4L199.2 28.6L198.8 29.8L197.7 30.9L196.5 32.6L195.1 33.1L194.7 34.2L196.3 35.2L197.1 36.4L198.7 37.9L198.6 38.1L198.4 37.9L199.0 37.1L199.5 35.6L200.5 35.0L201.1 35.1L201.4 34.7L201.5 34.1L201.3 33.9L201.4 33.2L200.9 33.0L200.7 32.4" fill="none" stroke="#f97316" stroke-width="3.5" stroke-linecap="round" stroke-linejoin="round"/>
<circle cx="216.4" cy="260.0" r="6" fill="#16a34a" stroke="#fff" stroke-width="2"/>
<circle cx="200.7" cy="32.4" r="6" fill="#1a1a1a" stroke="#fff" stroke-width="2"/>
</svg>
